<svg width="24" height="24" viewBox="0 0 24 24" fill="none" xmlns="http://www.w3.org/2000/svg">
<path d="M5.43891 8.54016C6.11091 8.54016 6.70824 8.68416 7.23091 8.97216C7.76424 9.26016 8.18024 9.68682 8.47891 10.2522C8.78824 10.8175 8.94291 11.5002 8.94291 12.3002V17.5002H7.13491V12.5722C7.13491 11.7828 6.93757 11.1802 6.54291 10.7642C6.14824 10.3375 5.60957 10.1242 4.92691 10.1242C4.24424 10.1242 3.70024 10.3375 3.29491 10.7642C2.90024 11.1802 2.70291 11.7828 2.70291 12.5722V17.5002H0.878906V5.66016H2.70291V9.70816C3.01224 9.33482 3.40157 9.04682 3.87091 8.84416C4.35091 8.64149 4.87357 8.54016 5.43891 8.54016Z" fill="#43403B"/>
<path d="M15.8295 8.54016C16.5015 8.54016 17.0989 8.68416 17.6215 8.97216C18.1549 9.26016 18.5709 9.68682 18.8695 10.2522C19.1789 10.8175 19.3335 11.5002 19.3335 12.3002V17.5002H17.5255V12.5722C17.5255 11.7828 17.3282 11.1802 16.9335 10.7642C16.5389 10.3375 16.0002 10.1242 15.3175 10.1242C14.6349 10.1242 14.0909 10.3375 13.6855 10.7642C13.2909 11.1802 13.0935 11.7828 13.0935 12.5722V17.5002H11.2695V5.66016H13.0935V9.70816C13.4029 9.33482 13.7922 9.04682 14.2615 8.84416C14.7415 8.64149 15.2642 8.54016 15.8295 8.54016Z" fill="#43403B"/>
<path d="M22.3962 17.6122C22.0655 17.6122 21.7882 17.5002 21.5642 17.2762C21.3402 17.0522 21.2282 16.7748 21.2282 16.4442C21.2282 16.1135 21.3402 15.8362 21.5642 15.6122C21.7882 15.3882 22.0655 15.2762 22.3962 15.2762C22.7162 15.2762 22.9882 15.3882 23.2122 15.6122C23.4362 15.8362 23.5482 16.1135 23.5482 16.4442C23.5482 16.7748 23.4362 17.0522 23.2122 17.2762C22.9882 17.5002 22.7162 17.6122 22.3962 17.6122Z" fill="#12B379"/>
</svg>
